<svg width="40" height="41" viewBox="0 0 40 41" fill="none" xmlns="http://www.w3.org/2000/svg">
<rect y="0.516602" width="40" height="40.1354" rx="11.1782" fill="#3692FF"/>
<path d="M19.3143 11.6912C19.8136 13.4167 18.4934 15.318 16.9801 15.7589C15.4668 16.1998 13.3994 15.2854 12.9001 13.5599C12.4008 11.8344 13.4489 9.44363 14.9622 9.00276C16.9801 8.41488 18.815 9.96572 19.3143 11.6912Z" fill="#222327"/>
<path d="M20.1466 11.6912C19.6473 13.4167 20.9675 15.318 22.4808 15.7589C23.9941 16.1998 26.0616 15.2854 26.5609 13.5599C27.0602 11.8344 26.012 9.44363 24.4987 9.00276C22.4808 8.41488 20.6459 9.96572 20.1466 11.6912Z" fill="#222327"/>
<path d="M29.5167 24.2964C29.5167 28.6852 25.2133 30.3166 19.3432 30.3166C13.4731 30.3166 9.26709 28.6852 9.26709 24.2964C9.26709 19.1912 13.4731 14.6641 19.3432 14.6641C25.2133 14.6641 29.5167 18.806 29.5167 24.2964Z" fill="#F3D6DD"/>
<path d="M17.4003 23.4299C17.4003 24.8673 16.4777 26.4441 15.1884 26.4441C13.8991 26.4441 11.8164 25.2729 11.8164 23.1258C11.8164 21.1087 14.0664 20.3914 16.3913 20.7597C17.8163 20.9855 17.4003 21.9925 17.4003 23.4299Z" fill="#222327"/>
<path d="M16.3221 23.2849C16.3221 23.5005 16.2573 23.6753 15.933 23.6753C15.6088 23.6753 15.5439 23.5005 15.5439 23.2849C15.5439 23.0693 15.6736 22.8945 15.933 22.8945C16.1924 22.8945 16.3221 23.0693 16.3221 23.2849Z" fill="white"/>
<path d="M21.3223 23.4299C21.3223 24.8673 22.2449 26.4441 23.5342 26.4441C24.8235 26.4441 26.9062 25.2729 26.9062 23.1258C26.9062 21.1087 24.6563 20.3914 22.3313 20.7597C20.9064 20.9855 21.3223 21.9925 21.3223 23.4299Z" fill="#222327"/>
<path d="M22.4015 23.2849C22.4015 23.5005 22.4664 23.6753 22.7906 23.6753C23.1148 23.6753 23.1797 23.5005 23.1797 23.2849C23.1797 23.0693 23.05 22.8945 22.7906 22.8945C22.5312 22.8945 22.4015 23.0693 22.4015 23.2849Z" fill="white"/>
<path d="M17.875 25.5096C17.7964 25.395 17.6399 25.3657 17.5253 25.4442C17.4107 25.5227 17.3815 25.6793 17.46 25.7939L17.875 25.5096ZM19.3174 25.2002L19.5554 25.1187C19.5205 25.017 19.4249 24.9487 19.3174 24.9487C19.21 24.9487 19.1144 25.017 19.0795 25.1187L19.3174 25.2002ZM21.1749 25.7939C21.2534 25.6793 21.2242 25.5227 21.1096 25.4442C20.995 25.3657 20.8385 25.395 20.7599 25.5096L21.1749 25.7939ZM17.46 25.7939C17.5295 25.8953 17.6557 26.0312 17.8249 26.1435C17.9957 26.2568 18.2239 26.3547 18.4925 26.3547V25.8517C18.3485 25.8517 18.2158 25.7992 18.103 25.7243C17.9886 25.6485 17.9086 25.5586 17.875 25.5096L17.46 25.7939ZM18.4925 26.3547C18.823 26.3547 19.0688 26.119 19.2218 25.916C19.3834 25.7016 19.4975 25.4506 19.5554 25.2817L19.0795 25.1187C19.0342 25.2508 18.9422 25.4513 18.8201 25.6132C18.6895 25.7865 18.5744 25.8517 18.4925 25.8517V26.3547ZM19.0795 25.2817C19.1374 25.4506 19.2515 25.7016 19.4131 25.916C19.5661 26.119 19.8119 26.3547 20.1424 26.3547V25.8517C20.0605 25.8517 19.9454 25.7865 19.8148 25.6132C19.6927 25.4513 19.6006 25.2508 19.5554 25.1187L19.0795 25.2817ZM20.1424 26.3547C20.411 26.3547 20.6392 26.2568 20.81 26.1435C20.9792 26.0312 21.1054 25.8953 21.1749 25.7939L20.7599 25.5096C20.7263 25.5586 20.6463 25.6485 20.5319 25.7243C20.4191 25.7992 20.2863 25.8517 20.1424 25.8517V26.3547Z" fill="#222327"/>
<path d="M20.6903 24.9678C20.6903 25.177 19.7483 25.4433 19.4313 25.527C19.3635 25.5449 19.2936 25.5449 19.2259 25.527C18.9088 25.4433 17.9668 25.177 17.9668 24.9678C17.9668 24.7162 18.7197 24.4473 19.3286 24.4473C19.9374 24.4473 20.6903 24.7162 20.6903 24.9678Z" fill="#222327"/>
<path d="M19.166 18.2761C15.3818 18.2761 13.9911 16.9466 13.7661 16.169L15.5661 14.2124L19.466 13.5352L24.8659 16.169C24.5409 16.7961 22.9544 18.2761 19.166 18.2761Z" fill="#222327"/>
<path fill-rule="evenodd" clip-rule="evenodd" d="M19.6898 32.4989C27.5098 32.4989 33.2427 30.295 33.2427 24.3657C33.2427 16.9482 27.5098 11.3525 19.6898 11.3525C11.8698 11.3525 6.2666 17.4687 6.2666 24.3657C6.2666 30.295 11.8698 32.4989 19.6898 32.4989ZM19.3823 30.2218C25.1345 30.2218 29.3515 28.6079 29.3515 24.2658C29.3515 18.8339 25.1345 14.7362 19.3823 14.7362C13.6301 14.7362 9.50854 19.2151 9.50854 24.2658C9.50854 28.6079 13.6301 30.2218 19.3823 30.2218Z" fill="white"/>
</svg>
