<svg width="21" height="18" viewBox="0 0 21 18" fill="none" xmlns="http://www.w3.org/2000/svg">
<path d="M13.9004 0.900391C16.7982 0.900597 19.1138 3.19768 19.2002 6.12598V6.2998C19.2002 7.86282 18.5949 9.21725 17.5918 10.1367L17.2998 10.4043V10.4697C17.1482 10.5982 16.9523 10.7669 16.7246 10.9648C16.219 11.4045 15.5418 11.9998 14.8047 12.6494C13.3322 13.9472 11.6195 15.4614 10.5234 16.4082C10.2572 16.63 9.84142 16.6301 9.5752 16.4082C8.4766 15.4593 6.73641 13.9422 5.25488 12.6475C4.51156 11.9978 3.83372 11.4047 3.33594 10.9678C3.11103 10.7704 2.93153 10.6112 2.7998 10.4951V10.4268L2.53613 10.1641C1.49542 9.12335 0.900391 7.74801 0.900391 6.2998V6.10938C0.995177 3.30667 3.3896 1 6.2002 1C6.61759 1.00005 7.17164 1.14516 7.72363 1.44238C8.24981 1.72575 8.70915 2.11483 9.0127 2.54688C9.4602 3.4692 10.802 3.45027 11.2129 2.49023C11.4637 2.04649 11.9067 1.64519 12.4385 1.34863C12.9899 1.04112 13.5399 0.900391 13.9004 0.900391Z" stroke="#6B7280" stroke-width="1.8"/>
</svg>
